<?xml version="1.0" standalone="no"?><!DOCTYPE svg PUBLIC "-//W3C//DTD SVG 1.1//EN" "http://www.w3.org/Graphics/SVG/1.1/DTD/svg11.dtd"><svg t="1784705942434" class="icon" viewBox="0 0 1137 1024" version="1.1" xmlns="http://www.w3.org/2000/svg" p-id="8245" xmlns:xlink="http://www.w3.org/1999/xlink" width="222.0703125" height="200"><path d="M86.999 112v500c0 13.781 11.218 24.999 25.019 24.999h899.963c0.002 0 0.005 0 0.007 0 13.809 0 25.006-11.191 25.012-24.999v-500.001c0-13.781-11.218-24.999-25.019-24.999h-899.963c-0.002 0-0.005 0-0.007 0-13.809 0-25.006 11.191-25.013 24.999zM462 862v-200.001h-349.981c-27.625 0-50.018-22.425-50.018-50v-500c0-27.625 22.406-50 50.018-50h899.963c27.625 0 50.018 22.425 50.018 50v500c0 27.619-22.406 50-50.018 50h-349.981v200.001h200.001v100h-600v-100h200.001zM487.001 862h150v-200.001h-150v200.001zM287 937.001h550v-50h-550v50z" p-id="8246" fill="#1296db"></path><path d="M62 512h1000v24.999h-1000z" p-id="8247" fill="#1296db"></path><path d="M536.999 587c0 13.807 11.193 24.999 24.999 24.999s24.999-11.193 24.999-24.999c0 0 0 0 0 0 0-13.807-11.193-24.999-24.999-24.999-13.807 0-24.999 11.193-24.999 24.999 0 0 0 0 0 0z" p-id="8248" fill="#1296db"></path></svg>