<?xml version="1.0" standalone="no"?><!DOCTYPE svg PUBLIC "-//W3C//DTD SVG 1.1//EN" "http://www.w3.org/Graphics/SVG/1.1/DTD/svg11.dtd"><svg t="1764299595332" class="icon" viewBox="0 0 1024 1024" version="1.1" xmlns="http://www.w3.org/2000/svg" p-id="13147" xmlns:xlink="http://www.w3.org/1999/xlink" width="16" height="16"><path d="M384.94697761 405.59309375h34.93958116c6.35265111 0 11.11641527-3.17632555 14.29346502-7.9415381 3.17632555-6.35265111 3.17632555-12.70530224 0-19.05795335-3.17632555-4.76448834-7.9408139-7.9408139-14.29346502-9.52897668H346.8303467c-4.76448834 1.58816278-9.52897668 1.58816278-14.29346501 6.35265112-4.76448834 4.76521253-9.52897668 9.52897668-14.29346502 15.8816278-1.58816278 1.58816278-1.58816278 3.17632555-3.17632556 4.76521253-4.76448834-11.11786365-9.52897668-20.64684034-19.05795337-25.41132868h-7.9408139c-9.52897668 6.35265111-15.88162779 15.88162779-19.05795335 25.41060448l-3.17632556-3.17632556c-6.35265111-6.35265111-12.70530224-12.70530224-20.64684033-19.05795335-3.17560137-1.58816278-6.35192692-3.17632555-9.52825248-3.17632555H162.60274004c-6.35265111 0-11.11641527 3.17632555-14.29346501 9.52897667-3.17632555 6.35265111-3.17632555 11.11713945 0 17.46979057 3.17632555 6.35337532 7.9408139 9.52970087 15.88162779 9.52970088 73.05621207-1.58816278 146.11169993-1.58816278 220.75535059-1.58816278z m484.39109624-33.35214257c-3.17632555-1.58816278-7.9408139-3.17632555-11.11713946-4.76448834h-69.87988651c-3.17632555 1.58816278-6.35265111 1.58816278-7.94081389 3.17632555-3.17632555 1.58816278-6.35265111 4.76521253-9.52897669 7.94081391l-14.29346501 14.29346501c-6.35265111-7.9408139-11.11713945-19.05795337-20.64611613-23.82244169h-6.35265113c-9.52897668 4.76521253-15.88162779 14.29346502-20.64684034 25.41060448-6.35192692-6.35265111-11.11641527-12.70530224-17.46906638-19.05795336-4.76521253-3.17632555-7.9408139-6.35265111-14.29346501-6.35265112H604.11344123c-7.9408139 0-12.70530224 4.76521253-15.88162781 11.11713946-4.76448834 11.11713945 3.17632555 25.41132867 15.88162781 25.41132867H859.80982138c7.9408139 0 14.29346502-6.35265111 17.46979057-12.70602644 3.17632555-7.9408139-1.58816278-15.88162779-7.9408139-20.64611613z m-107.99579322 79.40813899v-31.7632556h-57.17386009v31.7632556h-127.05302237c-1.58888697 0-3.17704975 0-4.76521254-1.58743858l-9.52897668-14.29346502c-6.35265111-7.9408139-15.88162779-15.88162779-25.41060448-19.05795338-9.52897668-4.76521253-20.64611614-6.35265111-31.76325558-4.76521251-7.9408139 1.58888697-15.88162779 3.17704975-22.23427892 6.35337531-12.70530224 6.35265111-23.82244169 17.46979057-30.17509282 30.17509283-1.58816278 3.17632555-3.17632555 3.17632555-6.35265112 3.17632555H327.77166914c-3.17632555 0-6.35265111 1.58816278-7.94081389 0-1.58816278-1.58816278 0-6.35265111 0-7.9408139v-23.8224417h-57.17386007v31.7632556h-1.58816279c-7.9408139 0-14.29346502 4.76448834-17.46979057 11.11641526-3.17632555 6.35337532-1.58816278 15.88162779 4.76448833 20.64684034 3.17632555 3.17632555 7.9408139 4.76448834 12.70530224 6.35265111 23.82244169 6.35265111 47.64488339 14.29346502 69.87916233 20.64611614 12.70530224 3.17632555 25.41060447 7.9408139 38.1159067 11.11713946 6.35265111 1.58816278 14.29346502 4.76521253 20.64684034 6.35265111-4.76521253 4.76521253-11.11786365 7.9408139-15.8816278 12.70530224-7.9415381 6.35265111-15.88162779 12.70530224-25.41132867 19.05795336-7.9408139 6.35265111-17.46979057 14.29346502-25.41060448 20.64684034-7.9408139 4.76376414-11.11641527 12.70457804-11.11641525 20.64539195v65.11539815c3.17560137 15.88162779 22.23355472 23.82244169 34.93885695 15.8816278 7.9408139-4.76521253 11.11713945-12.70530224 11.11713946-20.64684032v-44.46855784c0-3.17632555 0-4.76448834 3.17632555-6.35265112l42.88111926-23.8224417c7.9408139-4.76448834 14.29346502-7.9408139 22.23427892-12.70530224 22.23427892 22.23427892 50.82120895 33.35141837 82.58446455 33.35141838s58.76202285-11.11641527 82.58446454-33.35141838c6.35265111 3.17632555 11.11713945 6.35265111 17.46979056 9.52897667 15.88162779 9.52897668 33.35214257 19.05795337 49.23377038 26.99876727 1.58816278 1.58816278 3.17632555 3.17632555 3.17632558 4.76521254v52.40937172c1.58816278 11.11641527 14.29346502 17.46979057 23.82244169 17.46979059 12.70530224 0 22.23427892-11.11713945 22.23427892-23.8224417v-63.5265112c0-6.35337532-3.17632555-12.70602644-9.52897668-17.47051477l-23.82244169-19.05795336c-11.11713945-9.52897668-22.23427892-17.46979057-33.35141838-26.99804306-3.17632555-3.17704975-6.35265111-6.35337532-11.11713946-9.52970087 1.58816278 0 3.17632555 0 4.76448833-1.58816279 20.64611614-6.35265111 39.70406949-11.11713945 60.35018563-17.46979056 23.82244169-6.35265111 46.05672061-14.29346502 69.87916232-20.64684032 11.11713945-3.17560137 19.05795337-17.46906638 12.70530223-28.58620586-3.17632555-1.58816278-7.9408139-4.76521253-15.88162779-4.76521254zM512 575.52651118c-11.11713945 0-19.05795337-7.9408139-20.64684034-20.64611612 0-11.11641527 7.9415381-20.64611614 20.64684034-20.64611614 11.11713945 0 20.64684034 9.52897668 20.64684034 20.64684033-1.58888697 11.11641527-9.52970087 20.64539195-20.64684034 20.64539193z" fill="#0a72a8" p-id="13148"></path></svg>